# xmcd
#
# Track frame offsets:
#	150
#	21002
#	43480
#	64355
#	85317
#	105042
#	167560
#	203652
#	224235
#	251780
#
# Disc length: 3614 seconds
#
# Revision: 4063948168
# Processed by: cddbd v1.5.2PL0 Copyright (c) Steve Scherf et al.
# Submitted via: EZCDAudioConverter 8.0.2.1
#
DISCID=8f0e1c0a
DTITLE=Phi Nhung - Ngựa Ô Thương Nhớ
DYEAR=2004
DGENRE=World Pop
TTITLE0=Phi Nhung - Bến cũ đò xưa
TTITLE1=Phi Nhung - Bậu đi theo người
TTITLE2=Phi Nhung - Trách ai vô tình
TTITLE3=Phi Nhung - Ngựa Ô Thương Nhớ
TTITLE4=Phi Nhung - Hương đồng gió nội
TTITLE5=Phi Nhung, Mạnh Quỳnh, Linh Tuấn - Tân cổ. Hai chiếc ngai vàng
TTITLE6=Phi Nhung - Mẹ Cửu Long
TTITLE7=Phi Nhung - Bà Năm
TTITLE8=Phi Nhung - Nỗi buồn của mẹ
TTITLE9=Phi Nhung - Cho em
EXTD=
EXTT0=
EXTT1=
EXTT2=
EXTT3=
EXTT4=
EXTT5=
EXTT6=
EXTT7=
EXTT8=
EXTT9=
PLAYORDER=
